Coordinates
version=1
nRows=20
nColumns=23
inDegrees=yes

Units are S.I. units (second, meters, Newtons, ...)
If the header above contains a line with 'inDegrees', this indicates whether rotational values are in degrees (yes) or radians (no).

endheader
time	pelvis_tilt	pelvis_list	pelvis_rotation	pelvis_tx	pelvis_ty	pelvis_tz	hip_flexion_r	hip_adduction_r	hip_rotation_r	knee_angle_r	knee_angle_r_beta	ankle_angle_r	subtalar_angle_r	mtp_angle_r	hip_flexion_l	hip_adduction_l	hip_rotation_l	knee_angle_l	knee_angle_l_beta	ankle_angle_l	subtalar_angle_l	mtp_angle_l
     15.00000000	    -15.83726719	      5.32725225	      4.23098155	      2.14473177	      0.99588308	      0.98679226	     34.80728054	    -13.68029240	     -0.41140464	    101.70847809	      1.77514782	    -21.50537094	    -13.13550315	      0.00000000	     39.45079029	      8.37247393	     -3.42049155	     49.41995057	      0.86254085	     22.68811007	    -11.97639670	      0.00000000
     15.00666667	    -15.95558156	      5.31773966	      3.97490994	      2.14396108	      0.99591988	      0.98721671	     36.47763240	    -13.38221411	      0.22710634	    102.11767431	      1.78228964	    -20.57194220	    -12.64221557	      0.00000000	     38.51238460	      8.07947838	     -3.73056222	     49.42650190	      0.86265520	     23.82227349	    -10.95382233	      0.00000000
     15.01333333	    -15.94916148	      5.19669763	      3.87219184	      2.14344313	      0.99710886	      0.98741798	     37.81534156	    -13.07465922	      0.52827451	    102.11084731	      1.78217049	    -20.02884187	    -12.70415214	      0.00000000	     37.24753169	      7.91184091	     -3.55531286	     49.03206347	      0.85577095	     24.38701724	    -10.82546908	      0.00000000
     15.02000000	    -15.91497699	      5.37036682	      3.52021883	      2.14311530	      0.99869820	      0.98801821	     39.20774780	    -12.92710562	      1.13838601	    101.98763156	      1.78001997	    -19.01331617	    -12.49376862	      0.00000000	     35.83313129	      7.71489485	     -4.06154262	     48.45964884	      0.84578043	     25.17764072	    -10.11756816	      0.00000000
     15.02666667	    -16.09154412	      5.18494287	      3.47401214	      2.14294526	      1.00095090	      0.98822506	     40.53949821	    -12.63446103	      1.15679160	    101.40793767	      1.76990240	    -18.48635844	    -12.50868777	      0.00000000	     34.54226536	      7.48045899	     -3.91398727	     47.65629969	      0.83175934	     25.50132524	     -9.77318057	      0.00000000
     15.03333333	    -15.78447830	      5.31137307	      3.11720475	      2.14337501	      1.00431079	      0.98909968	     41.35058492	    -12.43766382	      1.47467695	    100.65972673	      1.75684366	    -17.37573781	    -12.28462866	      0.00000000	     32.54297439	      7.07936739	     -4.77598609	     46.58905346	      0.81313238	     26.08491951	     -7.76194823	      0.00000000
     15.04000000	    -15.77697790	      5.32335219	      2.92491594	      2.14383393	      1.00793880	      0.98963314	     42.31738540	    -12.28299479	      1.51749187	     99.59887242	      1.73832826	    -16.47418123	    -12.28116247	      0.00000000	     30.78532205	      6.88445358	     -5.02865099	     45.28316924	      0.79034040	     26.06711485	     -7.00800700	      0.00000000
     15.04666667	    -15.75574050	      5.31985128	      2.71198084	      2.14452972	      1.01210547	      0.99025841	     43.14828567	    -12.11278413	      1.47145414	     98.27767111	      1.71526894	    -15.47768733	    -12.30548490	      0.00000000	     28.92828298	      6.65427681	     -5.34506435	     43.79596410	      0.76438377	     25.80374361	     -6.15979862	      0.00000000
     15.05333333	    -15.83882343	      5.23947301	      2.54900624	      2.14537622	      1.01659220	      0.99087895	     43.94235700	    -11.90134834	      1.27657387	     96.69791292	      1.68769696	    -14.36110557	    -12.39495151	      0.00000000	     27.14812496	      6.37652375	     -5.62521131	     42.20618692	      0.73663693	     25.21626062	     -5.31856706	      0.00000000
     15.06000000	    -16.24356806	      5.01410064	      2.42036973	      2.14617804	      1.02104136	      0.99149150	     44.96240073	    -11.51433105	      0.97552718	     94.87388108	      1.65586160	    -13.35982234	    -12.48555588	      0.00000000	     25.75126157	      6.07593419	     -5.58134252	     40.63223420	      0.70916627	     24.67968477	     -4.62990515	      0.00000000
     15.06666667	    -15.77088709	      5.01983342	      2.09718244	      2.14793083	      1.02711604	      0.99231435	     44.87422774	    -11.41155739	      0.66280321	     92.78730050	      1.61944390	    -12.06807062	    -12.39567627	      0.00000000	     23.17475613	      5.73643495	     -6.33502566	     38.61722267	      0.67399768	     23.22241340	     -3.48389491	      0.00000000
     15.07333333	    -15.89567030	      4.77504414	      1.93455054	      2.14931487	      1.03259078	      0.99300234	     45.30231137	    -11.05810440	      0.18192282	     90.48939676	      1.57933791	    -10.89848714	    -12.39606042	      0.00000000	     21.40041034	      5.32847202	     -6.60581786	     36.81256096	      0.64250039	     21.84233758	     -2.53591568	      0.00000000
     15.08000000	    -15.33107205	      4.63261702	      1.60112619	      2.15138841	      1.03930766	      0.99379086	     44.83058811	    -10.80607717	     -0.30608972	     87.92033819	      1.53449938	     -9.76654711	    -12.19322384	      0.00000000	     18.74402716	      4.93654831	     -7.23193595	     34.71945870	      0.60596887	     20.25293481	     -1.40598201	      0.00000000
     15.08666667	    -15.20716352	      4.38094631	      1.33827319	      2.15326103	      1.04547817	      0.99455385	     44.73966484	    -10.43371599	     -0.86212384	     85.18734391	      1.48679963	     -8.73279251	    -12.09933537	      0.00000000	     16.67916379	      4.49086767	     -7.75643386	     32.75990424	      0.57176819	     18.24134319	     -0.45829558	      0.00000000
     15.09333333	    -15.09484703	      4.11212630	      1.05831338	      2.15521422	      1.05167531	      0.99531419	     44.55781402	    -10.03199322	     -1.44425019	     82.26750252	      1.43583879	     -7.81241736	    -11.98412509	      0.00000000	     14.67052963	      4.03978372	     -8.33819975	     30.81395772	      0.53780502	     15.96280095	      0.41388586	      0.00000000
     15.10000000	    -15.07302464	      3.79037207	      0.80741996	      2.15716098	      1.05770019	      0.99607153	     44.36411220	     -9.60827382	     -2.12437438	     79.17248608	      1.38182056	     -6.97268605	    -11.82782833	      0.00000000	     12.85398902	      3.54164048	     -8.95135539	     28.98893780	      0.50595241	     13.47432015	      1.27972489	      0.00000000
     15.10666667	    -14.82662886	      3.49638748	      0.53033694	      2.15930368	      1.06400917	      0.99680930	     43.80965996	     -9.20459655	     -2.81784445	     75.89464686	      1.32461147	     -6.18238321	    -11.62565326	      0.00000000	     10.80371013	      3.10602969	     -9.56253944	     27.11529346	      0.47325115	     10.92082865	      2.12949444	      0.00000000
     15.11333333	    -14.74910342	      3.16969591	      0.27349090	      2.16128351	      1.06991545	      0.99756724	     43.36855069	     -8.76141318	     -3.55318953	     72.47785869	      1.26497727	     -5.48668617	    -11.37548098	      0.00000000	      9.06874535	      2.64074021	    -10.18431141	     25.43832060	      0.44398245	      8.23980505	      2.86758723	      0.00000000
     15.12000000	    -14.91520513	      2.82084386	      0.08082891	      2.16307034	      1.07524002	      0.99830491	     43.11436949	     -8.32374536	     -4.37674398	     68.94744484	      1.20335992	     -4.84624068	    -11.06879256	      0.00000000	      7.77335867	      2.13380803	    -10.80678425	     24.05865368	      0.41990272	      5.53912238	      3.51472686	      0.00000000
     15.12666667	    -14.78295680	      2.50035765	     -0.17048294	      2.16503039	      1.08079482	      0.99911938	     42.43842483	     -7.88938423	     -5.22190460	     65.24931952	      1.13881546	     -4.23094615	    -10.67660906	      0.00000000	      6.16834039	      1.67501033	    -11.45978242	     22.67124321	      0.39568784	      2.90291146	      4.04364575	      0.00000000
